<svg xmlns="http://www.w3.org/2000/svg" viewBox="-4979 15845 91.579 58">
  <defs>
    <style>
      .cls-1 {
        fill: #fff;
        fill-rule: evenodd;
      }
    </style>
  </defs>
  <path id="Path_1106" data-name="Path 1106" class="cls-1" d="M64.522,33.142a49.2,49.2,0,0,0-18.732,4.164,49.2,49.2,0,0,0-18.732-4.164C18.046,33.142,0,38.674,0,47.642V58H91.579V47.642C91.579,38.674,73.533,33.142,64.522,33.142ZM49.952,53.858H4.162V47.642c0-2.97,9.285-10.356,22.895-10.356s22.895,7.386,22.895,10.356Zm37.465,0h-33.3V47.642c0-1.885-2.831-6.794-4.164-8.285,4.164-2.071,10.177-2.071,14.57-2.071,10.156,0,22.895,8.14,22.895,10.356ZM27.057,29A14.5,14.5,0,1,0,12.488,14.5,14.537,14.537,0,0,0,27.057,29Zm0-24.858A10.358,10.358,0,1,1,16.651,14.5,10.4,10.4,0,0,1,27.057,4.142ZM64.522,29a14.5,14.5,0,1,0-14.57-14.5A14.537,14.537,0,0,0,64.522,29Zm0-24.858A10.358,10.358,0,1,1,54.116,14.5,10.367,10.367,0,0,1,64.522,4.142Z" transform="translate(-4979 15845)"/>
</svg>
